<svg xmlns="http://www.w3.org/2000/svg" version="1.1" xmlns:xlink="http://www.w3.org/1999/xlink" preserveAspectRatio="none" x="0px" y="0px" width="284px" height="306px" viewBox="0 0 284 306">
<defs>
<g id="Layer0_0_FILL">
<path fill="#000000" stroke="none" d=" M 657.95 332.8 Q 653.35 331.75 648.2 331.75 640.45 331.75 633.6 334.05 632.25 331 630 328.35 630.85 327.8 631.55 327.1 633.2 325.4 634.1 323.1 635.15 320.9 635.15 318.4 635.15 316.1 634.2 313.8 633.3 311.55 631.65 309.8 630 307.95 627.65 306.95 626.6 306.45 625.25 306.2 623.9 305.9 622.3 305.9 619.5 305.9 617.2 306.9 614.85 307.95 613.05 309.6 611.35 311.35 610.3 313.65 609.4 315.8 609.4 318.3 609.4 319.4 609.7 320.6 606.3 320.9 603.2 322.2 599.1 324.25 595.7 327.2 592.6 330.25 590.8 334.5 589.3 338.5 589.3 342.75 589.3 347.3 590.8 351.3 592.6 355.35 595.45 358.6 598.5 361.6 602.95 363.65 604.2 364.25 605.7 364.75 604.9 368.8 604.9 373.05 604.9 381.05 607.95 388.5 611.1 396.1 616.7 401.85 622.1 407.65 630.15 411.4 638.15 414.95 647.7 414.95 653.1 414.95 657.95 413.85 661.55 412.95 665 411.4 672.9 407.95 678.65 402.1 684.35 396.6 687.4 389.1 690.75 381.5 690.75 373.5 690.75 365.7 687.6 358.15 684.55 350.65 679.1 344.85 673.45 338.85 665.7 335.3 662.05 333.85 657.95 332.8 M 665.15 372.95 Q 665.15 376.15 663.65 379.5 662.35 382.5 660.05 385 657.4 387.5 654.1 388.75 651 390.25 646.9 390.25 643 390.25 639.6 388.75 636.25 387.25 633.95 384.75 631.65 382.5 630.3 379.2 629.05 375.95 629.05 372.7 629.05 369.15 630.3 365.9 631.65 362.85 633.95 360.35 636.55 358.05 639.85 356.6 643.25 355.05 647.15 355.05 651.25 355.05 654.6 356.6 657.7 358.05 660.3 360.7 662.35 363.15 663.9 366.4 665.15 369.45 665.15 372.95 M 623.7 314.8 Q 624.25 315.05 624.65 315.45 625 315.95 625.3 316.45 625.5 317 625.5 317.6 625.5 318.2 625.2 318.75 625 319.2 624.65 319.7 624.2 320.15 623.55 320.35 623.05 320.6 622.35 320.6 621.7 320.6 621.1 320.35 620.5 320.15 620.1 319.65 619.75 319.2 619.55 318.7 619.3 318.1 619.3 317.6 619.3 316.95 619.55 316.35 619.75 315.85 620.1 315.45 620.55 315.05 621.15 314.8 621.75 314.5 622.4 314.5 623.15 314.5 623.7 314.8 M 620.4 342.65 Q 620.4 344.1 619.65 345.65 619.05 347.05 617.95 348.25 616.8 349.4 615.25 350 613.75 350.75 611.9 350.75 610.05 350.75 608.5 350 606.95 349.35 605.9 348.2 604.85 347.05 604.15 345.5 603.55 344.05 603.55 342.6 603.55 340.9 604.15 339.4 604.85 338 605.9 336.85 607.1 335.75 608.65 335.05 610.2 334.35 611.95 334.35 613.9 334.35 615.45 335.05 616.9 335.75 618.1 336.9 619.05 338.1 619.75 339.65 620.4 341.05 620.4 342.65 Z"/>
</g>
</defs>

<g transform="matrix( 2.8089141845703125, 0, 0, 2.8093414306640625, -1655.3,-859.4) ">
<use xlink:href="#Layer0_0_FILL"/>
</g>
</svg>